<svg xmlns="http://www.w3.org/2000/svg" xmlns:xlink="http://www.w3.org/1999/xlink" viewBox="0 0 615.71 139.89"><defs><style>.cls-1{fill:none;}.cls-2{fill:#302c29;}.cls-3{clip-path:url(#clip-path);}.cls-4{fill:url(#linear-gradient);}.cls-5{clip-path:url(#clip-path-2);}.cls-6{fill:url(#linear-gradient-2);}.cls-7{clip-path:url(#clip-path-3);}.cls-8{fill:url(#linear-gradient-3);}.cls-9{clip-path:url(#clip-path-4);}.cls-10{fill:url(#linear-gradient-4);}.cls-11{clip-path:url(#clip-path-5);}.cls-12{fill:url(#linear-gradient-5);}.cls-13{clip-path:url(#clip-path-6);}.cls-14{fill:url(#linear-gradient-6);}.cls-15{fill:url(#linear-gradient-7);}.cls-16{fill:url(#linear-gradient-8);}.cls-17{fill:url(#linear-gradient-9);}.cls-18{fill:url(#linear-gradient-10);}.cls-19{fill:url(#linear-gradient-11);}.cls-20{fill:url(#linear-gradient-12);}.cls-21{fill:url(#linear-gradient-13);}.cls-22{fill:url(#linear-gradient-14);}.cls-23{fill:url(#linear-gradient-15);}.cls-24{fill:url(#linear-gradient-16);}.cls-25{fill:url(#linear-gradient-17);}.cls-26{fill:url(#linear-gradient-18);}.cls-27{fill:url(#linear-gradient-19);}.cls-28{fill:url(#linear-gradient-20);}.cls-29{fill:url(#linear-gradient-21);}.cls-30{fill:url(#linear-gradient-22);}.cls-31{fill:url(#linear-gradient-23);}</style><clipPath id="clip-path"><path class="cls-1" d="M217.11,63.77V36.83a28.26,28.26,0,0,1,9.54-1.59c10.71,0,16.54,5,16.54,14.63,0,8.91-6.47,14.43-18.44,14.43a51.78,51.78,0,0,1-7.64-.53M205.35,30V104h11.76V73a55,55,0,0,0,8.06.64c19.4,0,29.79-10,29.79-23.65,0-14.63-10.07-24-28.41-24-8.27,0-15.69,1.48-21.2,4"></path></clipPath><linearGradient id="linear-gradient" x1="-113.64" y1="367.64" x2="-112.32" y2="367.64" gradientTransform="matrix(0, 58.84, 58.84, 0, -21402.06, 6712.83)" gradientUnits="userSpaceOnUse"><stop offset="0" stop-color="#27a1d8"></stop><stop offset="1" stop-color="#234b9a"></stop></linearGradient><clipPath id="clip-path-2"><polygon class="cls-1" points="275.2 27.18 275.2 103.95 315.48 103.95 315.48 93.88 286.96 93.88 286.96 69.7 312.94 69.7 312.94 59.84 286.96 59.84 286.96 37.25 315.48 37.25 315.48 27.18 275.2 27.18"></polygon></clipPath><linearGradient id="linear-gradient-2" x1="-113.63" y1="367.92" x2="-112.31" y2="367.92" gradientTransform="matrix(0, 57.96, 57.96, 0, -21029.27, 6613.51)" xlink:href="#linear-gradient"></linearGradient><clipPath id="clip-path-3"><polygon class="cls-1" points="332.34 27.18 332.34 37.25 350.04 37.25 350.04 103.95 362.01 103.95 362.01 37.25 379.61 37.25 379.61 27.18 332.34 27.18"></polygon></clipPath><linearGradient id="linear-gradient-3" x1="-113.63" y1="368.17" x2="-112.31" y2="368.17" gradientTransform="matrix(0, 57.96, 57.96, 0, -20983.52, 6613.51)" xlink:href="#linear-gradient"></linearGradient><clipPath id="clip-path-4"><path class="cls-1" d="M452.22,27.18,437.07,77.34c-1.28,4.35-2.23,9.44-2.23,9.44h-.21s-.95-5.09-2.23-9.44L417.24,27.18H403.36L393.5,104h11.13L411,50.62c.53-4.56.85-9.87.85-9.87h.21s1.06,5.31,2.44,9.87L430.6,104h8.16L455,50.62c1.38-4.56,2.44-9.87,2.44-9.87h.21s.32,5.31.85,9.87L464.73,104H476l-9.86-76.78Z"></path></clipPath><linearGradient id="linear-gradient-4" x1="-113.63" y1="368.51" x2="-112.31" y2="368.51" gradientTransform="matrix(0, 57.96, 57.96, 0, -20924.05, 6613.51)" xlink:href="#linear-gradient"></linearGradient><clipPath id="clip-path-5"><polygon class="cls-1" points="497.06 27.18 497.06 103.95 537.34 103.95 537.34 93.88 508.82 93.88 508.82 69.7 534.8 69.7 534.8 59.84 508.82 59.84 508.82 37.25 537.34 37.25 537.34 27.18 497.06 27.18"></polygon></clipPath><linearGradient id="linear-gradient-5" x1="-113.63" y1="368.86" x2="-112.31" y2="368.86" gradientTransform="matrix(0, 57.96, 57.96, 0, -20861.8, 6613.51)" xlink:href="#linear-gradient"></linearGradient><clipPath id="clip-path-6"><polygon class="cls-1" points="597.34 27.18 582.39 54.65 582.17 54.65 567.13 27.18 554.08 27.18 575.18 64.19 552.5 103.95 565.64 103.95 582.17 73.74 582.39 73.74 598.82 103.95 611.97 103.95 589.28 64.19 610.38 27.18 597.34 27.18"></polygon></clipPath><linearGradient id="linear-gradient-6" x1="-113.63" y1="369.13" x2="-112.31" y2="369.13" gradientTransform="matrix(0, 57.96, 57.96, 0, -20812.77, 6613.51)" gradientUnits="userSpaceOnUse"><stop offset="0" stop-color="#27a1d8"></stop><stop offset="0.77" stop-color="#1a5fa9"></stop><stop offset="1" stop-color="#234b9a"></stop></linearGradient><linearGradient id="linear-gradient-7" x1="53.09" y1="76.57" x2="61.42" y2="76.57" gradientUnits="userSpaceOnUse"><stop offset="0" stop-color="#27a1d8"></stop><stop offset="0" stop-color="#1c84c5"></stop><stop offset="0.35" stop-color="#1873b8"></stop><stop offset="0.76" stop-color="#224d9c"></stop><stop offset="1" stop-color="#234b9a"></stop></linearGradient><linearGradient id="linear-gradient-8" x1="-335.68" y1="65.82" x2="1208.29" y2="65.82" xlink:href="#linear-gradient-7"></linearGradient><linearGradient id="linear-gradient-9" x1="-150.07" y1="53.86" x2="701.57" y2="53.86" xlink:href="#linear-gradient-7"></linearGradient><linearGradient id="linear-gradient-10" x1="57.42" y1="55.02" x2="87.97" y2="55.02" xlink:href="#linear-gradient-7"></linearGradient><linearGradient id="linear-gradient-11" x1="-131.8" y1="49.59" x2="652.07" y2="49.59" xlink:href="#linear-gradient-7"></linearGradient><linearGradient id="linear-gradient-12" x1="55.04" y1="52.69" x2="98.62" y2="52.69" xlink:href="#linear-gradient-7"></linearGradient><linearGradient id="linear-gradient-13" x1="-64.28" y1="98.22" x2="410.62" y2="98.22" xlink:href="#linear-gradient-7"></linearGradient><linearGradient id="linear-gradient-14" x1="-128.67" y1="95.31" x2="599.26" y2="95.31" xlink:href="#linear-gradient-7"></linearGradient><linearGradient id="linear-gradient-15" x1="-152.27" y1="92.57" x2="667.19" y2="92.57" xlink:href="#linear-gradient-7"></linearGradient><linearGradient id="linear-gradient-16" x1="-243.33" y1="84.11" x2="926.91" y2="84.11" xlink:href="#linear-gradient-7"></linearGradient><linearGradient id="linear-gradient-17" x1="-177.82" y1="89.81" x2="740.66" y2="89.81" xlink:href="#linear-gradient-7"></linearGradient><linearGradient id="linear-gradient-18" x1="-282.11" y1="79.62" x2="1040.12" y2="79.62" xlink:href="#linear-gradient-7"></linearGradient><linearGradient id="linear-gradient-19" x1="-208.15" y1="87.09" x2="827.14" y2="87.09" xlink:href="#linear-gradient-7"></linearGradient><linearGradient id="linear-gradient-20" x1="32.14" y1="61.45" x2="196.46" y2="61.45" gradientUnits="userSpaceOnUse"><stop offset="0" stop-color="#27a1d8"></stop><stop offset="0.84" stop-color="#234b9a"></stop><stop offset="1" stop-color="#234b9a"></stop></linearGradient><linearGradient id="linear-gradient-21" x1="13.06" y1="149.31" x2="125.89" y2="129.01" gradientTransform="matrix(0.99, 0.12, -0.12, 0.99, 6.87, -14.52)" gradientUnits="userSpaceOnUse"><stop offset="0" stop-color="#45a635"></stop><stop offset="0.45" stop-color="#8dbf41"></stop><stop offset="0.73" stop-color="#dee69d"></stop><stop offset="0.77" stop-color="#dae49a"></stop><stop offset="0.81" stop-color="#ccdf91"></stop><stop offset="0.86" stop-color="#b6d582"></stop><stop offset="0.91" stop-color="#97c86d"></stop><stop offset="0.96" stop-color="#70b852"></stop><stop offset="1" stop-color="#45a635"></stop></linearGradient><linearGradient id="linear-gradient-22" x1="8.07" y1="134.31" x2="120.9" y2="114" gradientTransform="matrix(1, 0.02, -0.02, 1, 5.65, 3.4)" xlink:href="#linear-gradient-21"></linearGradient><linearGradient id="linear-gradient-23" x1="47.99" y1="53.51" x2="47.99" y2="134.97" gradientUnits="userSpaceOnUse"><stop offset="0" stop-color="#8cc048"></stop><stop offset="1" stop-color="#45943f"></stop></linearGradient></defs><g id="Warstwa_2" data-name="Warstwa 2"><g id="Layer_1" data-name="Layer 1"><g id="COMPANY"><path class="cls-1" d="M280.29,115.05c-4.17,0-6.33,4.28-6.33,9.82s2.16,9.82,6.33,9.82,6.34-4.29,6.34-9.82S284.47,115.05,280.29,115.05Z"></path><path class="cls-1" d="M476.93,115.21h-.06a27.82,27.82,0,0,1-.73,2.75l-3.35,9.73H481L477.66,118A27.82,27.82,0,0,1,476.93,115.21Z"></path><path class="cls-1" d="M415,114.78a9.76,9.76,0,0,0-3.48.57v9.22a15.52,15.52,0,0,0,2.68.2c4.22,0,6.51-2,6.51-5C420.7,116.51,418.67,114.78,415,114.78Z"></path><path class="cls-1" d="M219.75,134.69a7.2,7.2,0,0,0,3.91-1.07l1,2.35a9.66,9.66,0,0,1-5.14,1.26c-5.11,0-9.38-3.94-9.38-12.36s4.27-12.37,9.38-12.37a9.83,9.83,0,0,1,5.14,1.26l-1,2.32a7.12,7.12,0,0,0-3.91-1.06c-3.69,0-6.7,3.08-6.7,9.81S216.06,134.69,219.75,134.69Zm60.54,2.54c-6.13,0-9.18-5.53-9.18-12.36s3.05-12.37,9.18-12.37,9.19,5.53,9.19,12.37S286.43,137.23,280.29,137.23Zm78.2-.36-2.26-18c-.16-1.36-.29-2.91-.29-2.91h-.07s-.34,1.55-.73,2.91l-5.54,18h-2.12l-5.54-18c-.4-1.36-.73-2.91-.73-2.91h-.07s-.1,1.55-.26,2.91l-2.29,18H335.9l3.19-24h3.41l5.31,17.25c.4,1.32.69,2.88.69,2.88h.07s.3-1.56.7-2.88l5.31-17.25H358l3.19,24Zm55.81-9.82a15.81,15.81,0,0,1-2.79-.2v10h-2.85V113.76a14.72,14.72,0,0,1,6.3-1.26c5.5,0,8.55,2.85,8.55,7.32C423.51,124,420.26,127.05,414.3,127.05Zm69.83,9.82-2.46-7h-9.55l-2.41,7h-3l8.58-24h3.29l8.55,24Zm67,0h-2.69l-11-17.61a24.5,24.5,0,0,1-1.39-2.62H536s.07,1.53.07,2.92v17.31H533.5v-24h2.82l10.81,17.28a21.73,21.73,0,0,1,1.4,2.62h.06s0-1.59,0-3V112.86h2.52Zm57-9.62v9.62h-2.89v-9.62l-7.62-14.39h3.12l5.93,11.51h.06l5.91-11.51h3.12Z"></path><path class="cls-2" d="M219.75,115a7.12,7.12,0,0,1,3.91,1.06l1-2.32a9.83,9.83,0,0,0-5.14-1.26c-5.11,0-9.38,3.94-9.38,12.37s4.27,12.36,9.38,12.36a9.66,9.66,0,0,0,5.14-1.26l-1-2.35a7.2,7.2,0,0,1-3.91,1.07c-3.69,0-6.7-3.13-6.7-9.86S216.06,115,219.75,115Z"></path><path class="cls-2" d="M280.29,112.5c-6.13,0-9.18,5.53-9.18,12.37s3.05,12.36,9.18,12.36,9.19-5.53,9.19-12.36S286.43,112.5,280.29,112.5Zm0,22.19c-4.17,0-6.33-4.29-6.33-9.82s2.16-9.82,6.33-9.82,6.34,4.28,6.34,9.82S284.47,134.69,280.29,134.69Z"></path><path class="cls-2" d="M354.58,112.86l-5.31,17.25c-.4,1.32-.7,2.88-.7,2.88h-.07s-.29-1.56-.69-2.88l-5.31-17.25h-3.41l-3.19,24h2.69l2.29-18c.16-1.36.26-2.91.26-2.91h.07s.33,1.55.73,2.91l5.54,18h2.12l5.54-18c.39-1.36.73-2.91.73-2.91h.07s.13,1.55.29,2.91l2.26,18h2.69l-3.19-24Z"></path><path class="cls-2" d="M415,112.5a14.72,14.72,0,0,0-6.3,1.26v23.11h2.85v-10a15.81,15.81,0,0,0,2.79.2c6,0,9.21-3,9.21-7.23C423.51,115.35,420.46,112.5,415,112.5Zm-.77,12.27a15.52,15.52,0,0,1-2.68-.2v-9.22a9.76,9.76,0,0,1,3.48-.57c3.68,0,5.71,1.73,5.71,5C420.7,122.81,418.41,124.77,414.19,124.77Z"></path><path class="cls-2" d="M475.27,112.86l-8.58,24h3l2.41-7h9.55l2.46,7h3l-8.55-24Zm-2.48,14.83,3.35-9.73a27.82,27.82,0,0,0,.73-2.75h.06a27.82,27.82,0,0,0,.73,2.75l3.35,9.73Z"></path><path class="cls-2" d="M548.56,129.74c0,1.43,0,3,0,3h-.06a21.73,21.73,0,0,0-1.4-2.62l-10.81-17.28H533.5v24H536V119.56c0-1.39-.07-2.92-.07-2.92H536a24.5,24.5,0,0,0,1.39,2.62l11,17.61h2.69v-24h-2.52Z"></path><polygon class="cls-2" points="606.68 124.36 606.62 124.36 600.69 112.86 597.57 112.86 605.19 127.25 605.19 136.87 608.08 136.87 608.08 127.25 615.71 112.86 612.59 112.86 606.68 124.36"></polygon></g><g class="cls-3"><rect class="cls-4" x="205.35" y="26.02" width="49.61" height="77.94"></rect></g><g class="cls-5"><rect class="cls-6" x="275.2" y="27.18" width="40.28" height="76.77"></rect></g><g class="cls-7"><rect class="cls-8" x="332.34" y="27.18" width="47.28" height="76.77"></rect></g><g class="cls-9"><rect class="cls-10" x="393.5" y="27.18" width="82.47" height="76.77"></rect></g><g class="cls-11"><rect class="cls-12" x="497.06" y="27.18" width="40.28" height="76.77"></rect></g><g class="cls-13"><rect class="cls-14" x="552.5" y="27.18" width="59.47" height="76.77"></rect></g><g id="_Path_" data-name="&lt;Path&gt;"><polygon class="cls-15" points="55.32 76.58 55.32 76.56 55.2 76.58 55.32 76.58"></polygon><polygon class="cls-16" points="72.98 74.34 56.97 73.51 73.94 71.24 58.73 70.45 74.91 68.13 60.5 67.38 75.87 65.03 61.46 64.27 76.83 61.92 63.23 61.21 76.96 59.56 64.19 58.11 77.88 57.24 65.55 55.07 55.32 76.56 72.98 74.34"></polygon><polygon class="cls-17" points="66.66 52.75 65.6 54.97 78.05 54.09 66.66 52.75"></polygon><polygon class="cls-18" points="65.16 55 65.55 55.07 65.6 54.97 65.16 55"></polygon><polygon class="cls-19" points="67.8 50.4 69.61 46.55 66.72 52.63 78.17 51.73 67.8 50.4"></polygon><polygon class="cls-20" points="66.08 52.68 66.66 52.75 66.72 52.63 66.08 52.68"></polygon><path class="cls-21" d="M56.09,98.88l6.84-1.25L56,97.57C56,98,56.06,98.46,56.09,98.88Z"></path><path class="cls-22" d="M55.67,94.43c.08.6.14,1.18.19,1.75l10.45-1.67Z"></path><path class="cls-23" d="M55.26,91.57c.11.67.21,1.33.3,2l11.67-1.38Z"></path><path class="cls-24" d="M53,82.75c.33.88.63,1.79.9,2.71l16.2-2.59Z"></path><path class="cls-25" d="M54.78,89c.11.55.22,1.09.32,1.64l13.1-1.54Z"></path><path class="cls-26" d="M53,82.66l18.89-2.85-17.65-.13,17.82-3-16.74-.08L52.74,82C52.83,82.22,52.91,82.44,53,82.66Z"></path><path class="cls-27" d="M54,85.87c.22.8.41,1.61.6,2.43L69.16,86Z"></path></g><path class="cls-28" d="M147,44.3s.32-.24,0-6.8S141.21,25.12,136.27,21s-3.72-7.53,1-15.53C139.87,1,139,0,137.63,0a6.6,6.6,0,0,0-2.33.62s-19.93,9-29.12,13.58c-11.72,5.79-16.5,4.86-23.3,8.74S69.18,41.5,69.18,41.5L50.33,76.37C51,78,51.76,79.63,52.47,81.3c.41,1,.76,2,1.09,3,9.52-17,23.86-42.66,26.41-47.78s7.76-8.74,15.53-11.65,27.36-14.53,34-19.41S137.27.31,138.21.62s-.24,3-2.91,6.79-5.16,10.1-3.88,11.65c.85,1,.42.13,5.82,7.77s3.88,21.35,3.88,21.35l48.54,13.59c.73,1-1.21,2.35-7.76,6.8s-17.48,6.79-17.48,6.79-21-.08-29.12,0S119.67,79.87,113.94,86c-5.47,4.9-13.51,25.15-13.51,25.15-18.62,4.08-28.55,11.7-28.55,11.7l36.18-5.18c7.42-38.64,27.95-39.52,30.79-39.45h.33s25.75.73,36.89-1.94,20.39-16.5,20.39-16.5Z"></path><path class="cls-29" d="M0,137.11c7.78-3.14,23.52-5.92,53-3.8,44.11,3.19,64.66-7.4,68.1-8.5-14.92,3.78-33.73,7.75-65.43,5.81C12.88,128,0,137.11,0,137.11Z"></path><path class="cls-30" d="M8.58,139.89c7.44-3.86,22.85-8.14,52.35-8.83,44.21-1,63.66-13.53,67-15-14.49,5.19-32.84,10.93-64.58,12C20.53,129.59,8.58,139.89,8.58,139.89Z"></path><path class="cls-31" d="M77.51,87.63s-8.69,9.61-15.1,13.14S54,108.2,54,108.2s.81-16.14-3.79-26.9S40.71,60.82,38.49,47.38c0,0-49,55.63,4.83,80.15l.3,0c-15-25.57-8.4-41.19-8.4-41.19C34.63,109.91,46.69,125,46.69,125c14-4.92,18.48-14.78,19-16.17,0-.06.05-.11.07-.18l-.07.18c-5.2,13.61-14.37,17.81-18.91,19.08C56.3,128.5,81.39,126.45,77.51,87.63Z"></path></g></g></svg>